Coordinates
version=1
nRows=10
nColumns=46
inDegrees=yes

Units are S.I. units (second, meters, Newtons, ...)
Angles are in degrees.

endheader
time	pelvis_tilt	pelvis_list	pelvis_rotation	pelvis_tx	pelvis_ty	pelvis_tz	bb_angle	bb_tx	bb_ty	bb_tz	hip_flexion_r	hip_adduction_r	hip_rotation_r	knee_angle_r	knee_angle_r_beta	ankle_angle_r	subtalar_angle_r	mtp_angle_r	crank_angle_r	hip_flexion_l	hip_adduction_l	hip_rotation_l	knee_angle_l	knee_angle_l_beta	ankle_angle_l	subtalar_angle_l	mtp_angle_l	crank_angle_l	lumbar_extension	lumbar_bending	lumbar_rotation	arm_flex_r	arm_add_r	arm_rot_r	elbow_flex_r	pro_sup_r	wrist_flex_r	wrist_dev_r	arm_flex_l	arm_add_l	arm_rot_l	elbow_flex_l	pro_sup_l	wrist_flex_l	wrist_dev_l
      5.00000000	    -22.64209113	     -6.58882506	     -5.39754125	      0.07119157	      1.00695052	     -0.23320155	      0.00000000	      0.50000000	      0.00000000	      0.25000000	     87.37132236	      1.12092050	     -1.72299845	     78.64495241	      1.37261336	      5.48877259	     -7.56225464	      0.00000000	      0.00000000	     60.58876689	    -13.94955377	      2.02588002	     77.21100066	      1.34758618	     -7.05861524	    -13.32769563	      0.00000000	      0.00000000	    -54.23442006	     13.51175871	      3.54561176	     86.12638954	      2.82512460	     30.56528585	     62.22943748	     47.11474183	      0.00000000	      0.00000000	     66.81554258	    -44.15321964	     20.47303492	     78.03335690	     49.17547944	      0.00000000	      0.00000000
      5.00500000	    -22.39552122	     -6.42938080	     -5.41932019	      0.07153086	      1.00607176	     -0.23279119	      0.00000000	      0.50000000	      0.00000000	      0.25000000	     85.31373119	      1.12536287	     -1.93698018	     75.79069026	      1.32279709	      5.45883202	     -7.63951145	      0.00000000	      0.00000000	     61.48842993	    -13.71307573	      2.50429730	     79.96346669	      1.39562577	     -6.23889601	    -13.56780941	      0.00000000	      0.00000000	    -54.20160771	     13.17952607	      3.26332094	     86.02983203	      2.90436507	     30.42049859	     61.95204035	     47.05122911	      0.00000000	      0.00000000	     66.94406582	    -44.41365384	     20.81986940	     78.05887341	     49.22009924	      0.00000000	      0.00000000
      5.01000000	    -22.16086133	     -6.11967752	     -5.46983348	      0.07182550	      1.00493575	     -0.23227349	      0.00000000	      0.50000000	      0.00000000	      0.25000000	     83.44774493	      1.07253986	     -1.94370042	     73.12934759	      1.27634790	      5.21495547	     -7.41771730	      0.00000000	      0.00000000	     62.41768907	    -13.39602045	      2.83455512	     82.69767986	      1.44334680	     -5.47840194	    -13.81042223	      0.00000000	      0.00000000	    -54.09601796	     12.68944554	      2.88631658	     85.89055502	      2.88706875	     30.30102304	     61.74055672	     47.00387409	      0.00000000	      0.00000000	     67.05947446	    -44.54798691	     21.12250138	     78.07559250	     49.25564507	      0.00000000	      0.00000000
      5.01500000	    -21.93419753	     -6.11269332	     -5.50473739	      0.07202043	      1.00337961	     -0.23105184	      0.00000000	      0.50000000	      0.00000000	      0.25000000	     81.72130428	      1.11304894	     -2.29056514	     70.74088683	      1.23466139	      4.66723603	     -7.14473349	      0.00000000	      0.00000000	     63.54246401	    -13.36957834	      3.53867519	     85.61680440	      1.49429513	     -4.03915387	    -12.91019334	      0.00000000	      0.00000000	    -53.95636716	     12.34558262	      2.84940462	     85.87183816	      3.17271103	     29.67120331	     60.89701358	     46.79577419	      0.00000000	      0.00000000	     67.78214082	    -45.36656275	     23.25619552	     78.15527374	     49.49400592	      0.00000000	      0.00000000
      5.02000000	    -21.61983179	     -5.74979024	     -5.71472056	      0.07239595	      1.00187599	     -0.23057427	      0.00000000	      0.50000000	      0.00000000	      0.25000000	     80.00384897	      1.10398595	     -2.22658386	     68.47497943	      1.19511385	      4.03799960	     -6.47941919	      0.00000000	      0.00000000	     64.44457830	    -13.10913573	      3.73580841	     88.39368713	      1.54276088	     -3.31125210	    -13.42405366	      0.00000000	      0.00000000	    -53.82860622	     11.64955941	      2.54214066	     85.62279140	      3.04921900	     29.57407921	     60.73705658	     46.76331398	      0.00000000	      0.00000000	     68.02109406	    -45.45634779	     23.58807782	     78.14937105	     49.52702870	      0.00000000	      0.00000000
      5.02500000	    -21.40438288	     -5.49159516	     -5.95975161	      0.07258541	      1.00022121	     -0.22932547	      0.00000000	      0.50000000	      0.00000000	      0.25000000	     78.39712786	      1.27450128	     -2.23586431	     66.26017752	      1.15645826	      3.22978087	     -6.25999492	      0.00000000	      0.00000000	     65.56727535	    -13.04426634	      4.15034425	     91.19031831	      1.59157130	     -2.22330284	    -12.61416384	      0.00000000	      0.00000000	    -53.56686589	     10.81332578	      2.69201126	     85.33782235	      2.68191310	     28.90762016	     60.42015707	     46.66227017	      0.00000000	      0.00000000	     69.35360067	    -45.64253271	     26.53441378	     77.87650309	     49.76413383	      0.00000000	      0.00000000
      5.03000000	    -21.14087754	     -5.07875452	     -6.17622340	      0.07275558	      0.99876745	     -0.22822540	      0.00000000	      0.50000000	      0.00000000	      0.25000000	     76.73209292	      1.33236406	     -2.07790537	     64.06105288	      1.11807630	      2.46609292	     -5.66875738	      0.00000000	      0.00000000	     66.64107499	    -12.80116568	      4.42695167	     93.83326169	      1.63769936	     -1.72340950	    -12.75863235	      0.00000000	      0.00000000	    -53.31342739	      9.81195309	      2.90213510	     84.79628705	      1.68146734	     28.51827478	     61.04061530	     46.81441621	      0.00000000	      0.00000000	     71.50930700	    -45.34385644	     30.27170796	     76.60488725	     49.92088486	      0.00000000	      0.00000000
      5.03500000	    -20.90832043	     -4.57049595	     -6.33816638	      0.07291812	      0.99733651	     -0.22728789	      0.00000000	      0.50000000	      0.00000000	      0.25000000	     75.13211996	      1.21754825	     -1.96039729	     61.92296761	      1.08075967	      1.71315601	     -5.03834892	      0.00000000	      0.00000000	     67.81069834	    -12.40592610	      4.67737159	     96.40684627	      1.68261689	     -1.43409754	    -12.86608694	      0.00000000	      0.00000000	    -53.09751173	      8.91683784	      2.54201829	     84.48447102	      1.42732235	     28.35775128	     60.97535296	     46.79077118	      0.00000000	      0.00000000	     71.76103826	    -45.15712552	     30.41327844	     76.73399548	     49.94546517	      0.00000000	      0.00000000
      5.04000000	    -20.67395113	     -4.10861532	     -6.60595102	      0.07299963	      0.99586351	     -0.22573015	      0.00000000	      0.50000000	      0.00000000	      0.25000000	     73.52140051	      1.33471852	     -1.76335203	     59.81346371	      1.04394188	      0.63734679	     -4.78948335	      0.00000000	      0.00000000	     69.06119225	    -12.17072267	      5.03147671	     98.96382407	      1.72724457	     -0.99980016	    -12.35569764	      0.00000000	      0.00000000	    -52.79063162	      7.68787594	      3.05229294	     83.81042239	      0.05240220	     27.61905319	     61.70436117	     46.97310181	      0.00000000	      0.00000000	     74.22143347	    -44.30430657	     34.46905736	     75.49349835	     50.10699368	      0.00000000	      0.00000000
      5.04500000	    -20.45600158	     -3.57652205	     -6.75161077	      0.07310814	      0.99464793	     -0.22452734	      0.00000000	      0.50000000	      0.00000000	      0.25000000	     71.90654370	      1.25752866	     -1.54123818	     57.74769926	      1.00788749	     -0.32813199	     -4.20578424	      0.00000000	      0.00000000	     70.39731554	    -11.72785911	      5.33645748	    101.36383214	      1.76913261	     -1.04355527	    -12.35999112	      0.00000000	      0.00000000	    -52.53971077	      6.69594124	      2.65385664	     83.42674309	     -0.24813800	     27.46220597	     61.61563614	     46.95059591	      0.00000000	      0.00000000	     74.51279894	    -44.01657810	     34.63885132	     75.62176787	     50.13288491	      0.00000000	      0.00000000
